<?xml version="1.0" encoding="UTF-8" standalone="no"?>
<!-- Created with Inkscape (http://www.inkscape.org/) -->

<svg
   width="120mm"
   height="55mm"
   viewBox="0 0 120 55"
   version="1.1"
   id="svg5"
   inkscape:version="1.1.2 (b8e25be8, 2022-02-05)"
   sodipodi:docname="london-carriers.svg"
   xmlns:inkscape="http://www.inkscape.org/namespaces/inkscape"
   xmlns:sodipodi="http://sodipodi.sourceforge.net/DTD/sodipodi-0.dtd"
   xmlns="http://www.w3.org/2000/svg"
   xmlns:svg="http://www.w3.org/2000/svg">
  <sodipodi:namedview
     id="namedview7"
     pagecolor="#ffffff"
     bordercolor="#666666"
     borderopacity="1.0"
     inkscape:pageshadow="2"
     inkscape:pageopacity="0.0"
     inkscape:pagecheckerboard="0"
     inkscape:document-units="mm"
     showgrid="false"
     inkscape:zoom="0.37537287"
     inkscape:cx="511.49142"
     inkscape:cy="-91.908614"
     inkscape:window-width="1728"
     inkscape:window-height="969"
     inkscape:window-x="0"
     inkscape:window-y="38"
     inkscape:window-maximized="1"
     inkscape:current-layer="g17877" />
  <defs
     id="defs2" />
  <g
     inkscape:label="Layer 1"
     inkscape:groupmode="layer"
     id="layer1">
    <g
       id="g972">
      <g
         id="g17877"
         transform="translate(25.319511,-96.937556)">
        <g
           id="g27100">
          <rect
             style="fill:none;fill-opacity:0.946092;stroke-width:0.175639"
             id="rect26641"
             width="120"
             height="55"
             x="-25.319511"
             y="96.937553" />
          <g
             id="g26989"
             transform="matrix(0.52173913,0,0,0.52173913,-11.644394,46.470136)">
            <path
               id="path1373"
               style="fill:#121212;fill-opacity:0.946092;stroke-width:0.176389"
               d="m 28.27744,128.53517 c -11.733257,-1.3e-4 -21.2450546,9.51144 -21.245216,21.24469 -1.244e-4,11.73346 9.511757,21.24534 21.245216,21.24522 5.031062,-0.005 9.896991,-1.79586 13.731462,-5.05292 -3.291226,2.25487 -7.199733,3.46378 -11.203969,3.46542 -10.871626,-1.6e-4 -19.684701,-8.71352 -19.684584,-19.46186 0.0016,-1.0091 0.08234,-2.01656 0.241845,-3.01326 h 11.391553 v -1.47639 H 11.657265 c 0.235511,-0.97717 0.54719,-1.93484 0.932243,-2.86443 h 15.707569 v -1.47587 h -15.02079 c 0.467212,-0.9053 1.00543,-1.77301 1.609723,-2.5952 H 32.801712 V 137.0747 H 16.082834 c 3.73253,-4.16777 9.091578,-6.55582 14.722099,-6.56033 4.970362,5.3e-4 9.75655,1.85987 13.397632,5.20485 -4.032602,-4.56751 -9.832173,-7.18378 -15.925125,-7.18405 z"
               sodipodi:nodetypes="ccccccccccccccccccccc" />
            <path
               style="fill:#0067f4;fill-opacity:1;stroke-width:0.176389"
               d="m 25.721408,192.696 c -0.309676,-1.43026 -1.264901,-5.73398 -2.122724,-9.56383 l -1.55968,-6.96335 -1.127035,-0.2277 c -3.401896,-0.6873 -7.87513,-2.67458 -10.610737,-4.71395 l -1.5462003,-1.15267 -0.7468553,0.46767 c -0.4107709,0.25722 -2.2404175,1.41631 -4.065882,2.57575 -1.8254644,1.15944 -3.3414758,2.08028 -3.3689148,2.04631 -0.027437,-0.034 1.1195138,-1.88738 2.5487806,-4.1187 l 2.5986687,-4.05694 -0.3419952,-0.44098 c -0.9007034,-1.16137 -2.5478351,-3.7589 -3.184636,-5.02216 -0.8065259,-1.59996 -1.9295904,-4.91661 -2.2431922,-6.62462 l -0.2114497,-1.15165 -9.3800889,-2.07543 c -5.1590489,-1.14148 -9.4793089,-2.07183 -9.6005759,-2.06745 -0.121267,0.004 -0.220486,-0.0544 -0.220486,-0.13061 0,-0.0762 0.694531,-0.27944 1.543403,-0.45159 0.848871,-0.17214 5.187883,-1.12247 9.6422469,-2.11183 l 8.0988446,-1.79885 0.3942557,-1.58603 c 0.8713646,-3.50536 2.4406136,-6.8474 4.4963414,-9.57588 0.7204816,-0.95626 1.1840669,-1.72832 1.1120861,-1.85208 -0.067889,-0.11673 -1.3005894,-2.05859 -2.7393353,-4.31526 -1.4387442,-2.25666 -2.6158983,-4.13569 -2.6158983,-4.17562 0,-0.0399 1.9580895,1.17785 4.3513092,2.70617 l 4.3513092,2.77876 1.8960715,-1.28138 c 2.948474,-1.9926 5.886647,-3.27089 9.41348,-4.09544 l 1.403141,-0.32805 1.538898,-6.86321 c 0.846395,-3.77476 1.835817,-8.23216 2.198716,-9.90532 0.362899,-1.67317 0.684648,-3.0173 0.714999,-2.98694 0.03035,0.0303 1.011552,4.37587 2.180444,9.6567 1.168894,5.28084 2.163933,9.72828 2.211204,9.8832 0.05773,0.18921 0.620384,0.41094 1.714227,0.67554 1.995662,0.48274 4.666398,1.52999 6.628313,2.5991 1.793145,0.97713 4.564773,3.05099 5.759693,4.30965 l 0.881945,0.92899 -0.881945,-0.75502 c -6.527925,-5.58844 -15.979171,-7.31577 -24.165277,-4.41648 -6.229661,2.20638 -11.7262348,7.28074 -14.3296872,13.22899 -2.7183079,6.21067 -2.8590874,12.81732 -0.4067774,19.08953 2.2273348,5.69679 6.7988306,10.57638 12.4243446,13.26168 8.161463,3.89582 17.996207,2.9152 25.242675,-2.51693 0.582083,-0.43634 1.302036,-0.99905 1.599895,-1.25046 0.297857,-0.2514 -0.079,0.15342 -0.837456,0.8996 -3.130615,3.07997 -8.336161,5.81168 -12.712551,6.67116 -0.809299,0.15894 -1.032701,0.27674 -1.106627,0.58355 -0.05094,0.21143 -1.004874,4.50663 -2.119847,9.54489 -1.114972,5.03826 -2.051786,9.18503 -2.081807,9.21506 -0.03002,0.03 -0.307958,-1.11563 -0.617631,-2.54589 z"
               id="path974" />
            <g
               id="g26968">
              <g
                 aria-label="LONDON"
                 id="text3747"
                 style="font-size:18.3992px;line-height:1.25;font-family:'Gurmukhi MN';-inkscape-font-specification:'Gurmukhi MN';fill:#0067f4;fill-opacity:1;stroke-width:0.45998"
                 transform="matrix(1.8902255,0,0,1.8902255,-18.051773,-132.26846)">
                <path
                   d="m 36.152216,143.07215 h 2.003429 v 11.14014 h 6.001302 v 0.77262 h -8.004731 z"
                   id="path18083"
                   style="fill:#0067f4;fill-opacity:1" />
                <path
                   d="m 51.999965,155.26341 q -1.383533,0 -2.587387,-0.49412 -1.19487,-0.49412 -2.084284,-1.34759 -0.880431,-0.86247 -1.392518,-2.00343 -0.503103,-1.14995 -0.503103,-2.45263 0,-0.85348 0.224599,-1.64407 0.233584,-0.79059 0.655831,-1.47337 0.422248,-0.68279 1.015191,-1.23979 0.601926,-0.56599 1.329629,-0.96129 0.727703,-0.40428 1.572198,-0.61989 0.844494,-0.2246 1.769844,-0.2246 0.925351,0 1.769845,0.2246 0.844495,0.21561 1.572198,0.61989 0.736686,0.3953 1.329629,0.96129 0.592943,0.557 1.015191,1.23979 0.431231,0.68278 0.655831,1.47337 0.233583,0.79059 0.233583,1.64407 0,0.86246 -0.233583,1.67102 -0.2246,0.79958 -0.655831,1.50033 -0.422248,0.70075 -1.015191,1.27572 -0.592943,0.57498 -1.329629,0.98824 -0.727703,0.41326 -1.572198,0.63786 -0.844494,0.2246 -1.769845,0.2246 z m 0,-0.59294 q 1.024175,0 1.805781,-0.42225 0.790591,-0.43123 1.32963,-1.19487 0.539039,-0.76364 0.808559,-1.80578 0.278503,-1.04214 0.278503,-2.28193 0,-1.23081 -0.278503,-2.25498 -0.26952,-1.02417 -0.808559,-1.76086 -0.539039,-0.74567 -1.32963,-1.14995 -0.781606,-0.41327 -1.805781,-0.41327 -1.042142,0 -1.832732,0.41327 -0.781607,0.40428 -1.320646,1.14995 -0.530055,0.73669 -0.799575,1.76086 -0.269519,1.02417 -0.269519,2.25498 0,1.23979 0.269519,2.28193 0.26952,1.04214 0.799575,1.80578 0.539039,0.76364 1.320646,1.19487 0.79059,0.42225 1.832732,0.42225 z"
                   id="path18085"
                   style="fill:#0067f4;fill-opacity:1" />
                <path
                   d="m 61.271437,143.07215 h 1.122998 l 7.807083,8.71446 h 0.08984 v -8.71446 h 0.88043 v 12.19126 h -0.467167 l -8.45393,-9.68473 h -0.07187 v 9.40623 h -0.907382 z"
                   id="path18087"
                   style="fill:#0067f4;fill-opacity:1" />
                <path
                   d="m 74.423991,143.07215 h 3.970921 q 1.832733,0 3.153378,0.34139 1.320646,0.34139 2.201077,1.09604 1.006206,0.86247 1.509309,1.97648 0.512087,1.11401 0.512087,2.43466 0,1.25776 -0.458183,2.36279 -0.449199,1.10503 -1.32963,1.93155 -0.871446,0.81755 -2.16514,1.2937 -1.28471,0.47615 -2.946747,0.47615 h -4.447072 z m 2.003428,11.04131 h 2.129204 q 1.006207,0 1.895621,-0.3324 0.889415,-0.33241 1.545246,-0.98824 0.664814,-0.65583 1.042142,-1.60814 0.386311,-0.96128 0.386311,-2.21904 0,-1.10503 -0.359359,-2.0214 -0.35936,-0.92535 -1.006207,-1.59016 -0.646846,-0.66482 -1.545245,-1.03316 -0.889414,-0.36834 -1.949525,-0.36834 h -2.138188 z"
                   id="path18089"
                   style="fill:#0067f4;fill-opacity:1" />
                <path
                   d="m 94.512181,155.26341 q -1.383534,0 -2.587387,-0.49412 -1.19487,-0.49412 -2.084285,-1.34759 -0.88043,-0.86247 -1.392517,-2.00343 -0.503104,-1.14995 -0.503104,-2.45263 0,-0.85348 0.2246,-1.64407 0.233584,-0.79059 0.655831,-1.47337 0.422247,-0.68279 1.01519,-1.23979 0.601927,-0.56599 1.32963,-0.96129 0.727703,-0.40428 1.572197,-0.61989 0.844495,-0.2246 1.769845,-0.2246 0.925351,0 1.769845,0.2246 0.844495,0.21561 1.572197,0.61989 0.736687,0.3953 1.32963,0.96129 0.592943,0.557 1.015187,1.23979 0.43123,0.68278 0.65583,1.47337 0.23359,0.79059 0.23359,1.64407 0,0.86246 -0.23359,1.67102 -0.2246,0.79958 -0.65583,1.50033 -0.422244,0.70075 -1.015187,1.27572 -0.592943,0.57498 -1.32963,0.98824 -0.727702,0.41326 -1.572197,0.63786 -0.844494,0.2246 -1.769845,0.2246 z m 0,-0.59294 q 1.024174,0 1.805781,-0.42225 0.790591,-0.43123 1.32963,-1.19487 0.539039,-0.76364 0.808558,-1.80578 0.278504,-1.04214 0.278504,-2.28193 0,-1.23081 -0.278504,-2.25498 -0.269519,-1.02417 -0.808558,-1.76086 -0.539039,-0.74567 -1.32963,-1.14995 -0.781607,-0.41327 -1.805781,-0.41327 -1.042142,0 -1.832733,0.41327 -0.781606,0.40428 -1.320645,1.14995 -0.530056,0.73669 -0.799575,1.76086 -0.26952,1.02417 -0.26952,2.25498 0,1.23979 0.26952,2.28193 0.269519,1.04214 0.799575,1.80578 0.539039,0.76364 1.320645,1.19487 0.790591,0.42225 1.832733,0.42225 z"
                   id="path18091"
                   style="fill:#0067f4;fill-opacity:1" />
                <path
                   d="m 103.78366,143.07215 h 1.12299 l 7.80709,8.71446 h 0.0898 v -8.71446 h 0.88043 v 12.19126 h -0.46717 l -8.45393,-9.68473 h -0.0719 v 9.40623 h -0.90738 z"
                   id="path18093"
                   style="fill:#0067f4;fill-opacity:1" />
              </g>
              <g
                 aria-label="CARRIERS"
                 id="text5939"
                 style="font-size:10.5833px;line-height:1.25;letter-spacing:4.10104px;fill:#121212;fill-opacity:1;stroke-width:0.264583"
                 transform="matrix(1.8902255,0,0,1.8902255,-18.051773,-130.82623)">
                <path
                   d="m 37.500966,161.37495 q 0,0.7183 0.217041,1.29191 0.21704,0.56844 0.594277,0.96635 0.382404,0.39274 0.899167,0.60461 0.516762,0.20671 1.121375,0.20671 0.361734,0 0.697629,-0.13953 0.335896,-0.13953 0.620116,-0.36173 0.289387,-0.22738 0.516762,-0.50643 0.227376,-0.28422 0.372069,-0.57361 l 0.485757,0.31006 q -0.211872,0.34623 -0.501259,0.66662 -0.289388,0.31523 -0.671792,0.56327 -0.377237,0.24288 -0.857826,0.38758 -0.475422,0.14469 -1.064531,0.14469 -0.852659,0 -1.550288,-0.28422 -0.692462,-0.28422 -1.188554,-0.76998 -0.496092,-0.48575 -0.769977,-1.13171 -0.268716,-0.65112 -0.268716,-1.37459 0,-0.48058 0.124023,-0.93534 0.124023,-0.45991 0.356566,-0.85782 0.237711,-0.40308 0.573607,-0.7338 0.341063,-0.3359 0.764808,-0.57361 0.428913,-0.24288 0.935341,-0.37207 0.506427,-0.13436 1.080034,-0.13436 0.547768,0 1.007687,0.14986 0.465086,0.1447 0.842323,0.38757 0.382405,0.24288 0.676959,0.56328 0.299723,0.31522 0.511595,0.66145 l -0.501259,0.33073 q -0.428913,-0.83199 -0.961179,-1.21439 -0.532266,-0.38757 -1.224728,-0.38757 -0.594277,0 -1.111039,0.21704 -0.516763,0.21704 -0.904335,0.62011 -0.382404,0.40308 -0.604612,0.98185 -0.217041,0.57361 -0.217041,1.29707 z"
                   style="font-family:'Gurmukhi MN';-inkscape-font-specification:'Gurmukhi MN';fill:#121212;fill-opacity:1"
                   id="path18114" />
                <path
                   d="m 51.404994,157.76795 3.224599,7.0073 h -1.173051 l -1.043861,-2.28409 h -2.940379 l -1.080034,2.28409 h -0.578775 l 3.302114,-7.0073 z m -1.731155,4.2788 h 2.526969 l -1.245398,-2.71301 z"
                   style="font-family:'Gurmukhi MN';-inkscape-font-specification:'Gurmukhi MN';fill:#121212;fill-opacity:1"
                   id="path18116" />
                <path
                   d="m 59.686644,157.92298 h 2.377109 q 0.614947,0 1.080034,0.13436 0.465086,0.12919 0.775144,0.3669 0.310057,0.23771 0.465086,0.56844 0.160197,0.32556 0.160197,0.71313 0,0.32039 -0.124023,0.59945 -0.118856,0.27905 -0.341064,0.50642 -0.21704,0.22221 -0.527098,0.38758 -0.310057,0.16019 -0.682126,0.25321 l 2.495963,3.32278 h -1.338415 l -2.382276,-3.21943 h -0.80615 v 3.21943 h -1.152381 z m 1.152381,3.28661 h 0.666624 q 0.387572,0 0.713133,-0.10335 0.330728,-0.10335 0.568439,-0.28939 0.242878,-0.1912 0.377236,-0.45992 0.134359,-0.26871 0.134359,-0.60461 0,-0.31006 -0.108521,-0.56844 -0.103352,-0.25838 -0.299722,-0.43925 -0.191202,-0.18603 -0.459919,-0.28938 -0.263549,-0.10336 -0.578774,-0.10336 h -1.012855 z"
                   style="font-family:'Gurmukhi MN';-inkscape-font-specification:'Gurmukhi MN';fill:#121212;fill-opacity:1"
                   id="path18118" />
                <path
                   d="m 70.402245,157.92298 h 2.377109 q 0.614947,0 1.080034,0.13436 0.465086,0.12919 0.775144,0.3669 0.310057,0.23771 0.465086,0.56844 0.160197,0.32556 0.160197,0.71313 0,0.32039 -0.124023,0.59945 -0.118856,0.27905 -0.341064,0.50642 -0.21704,0.22221 -0.527098,0.38758 -0.310057,0.16019 -0.682126,0.25321 l 2.495963,3.32278 h -1.338415 l -2.382276,-3.21943 h -0.80615 v 3.21943 h -1.152381 z m 1.152381,3.28661 h 0.666624 q 0.387572,0 0.713133,-0.10335 0.330728,-0.10335 0.568438,-0.28939 0.242879,-0.1912 0.377237,-0.45992 0.134359,-0.26871 0.134359,-0.60461 0,-0.31006 -0.108521,-0.56844 -0.103352,-0.25838 -0.299722,-0.43925 -0.191202,-0.18603 -0.459919,-0.28938 -0.263549,-0.10336 -0.578774,-0.10336 h -1.012855 z"
                   style="font-family:'Gurmukhi MN';-inkscape-font-specification:'Gurmukhi MN';fill:#121212;fill-opacity:1"
                   id="path18120" />
                <path
                   d="m 81.117848,157.92298 h 1.152381 v 6.85227 h -1.152381 z"
                   style="font-family:'Gurmukhi MN';-inkscape-font-specification:'Gurmukhi MN';fill:#121212;fill-opacity:1"
                   id="path18122" />
                <path
                   d="m 93.001335,157.92298 v 0.44442 h -3.612171 v 2.44945 h 2.418449 v 0.44442 h -2.418449 v 3.06957 h 3.612171 v 0.44441 h -4.764552 v -6.85227 z"
                   style="font-family:'Gurmukhi MN';-inkscape-font-specification:'Gurmukhi MN';fill:#121212;fill-opacity:1"
                   id="path18124" />
                <path
                   d="m 98.456292,157.92298 h 2.377108 q 0.61495,0 1.08003,0.13436 0.46509,0.12919 0.77515,0.3669 0.31006,0.23771 0.46508,0.56844 0.1602,0.32556 0.1602,0.71313 0,0.32039 -0.12402,0.59945 -0.11886,0.27905 -0.34107,0.50642 -0.21704,0.22221 -0.52709,0.38758 -0.31006,0.16019 -0.68213,0.25321 l 2.49596,3.32278 h -1.33841 l -2.38228,-3.21943 h -0.806147 v 3.21943 h -1.152381 z m 1.152381,3.28661 h 0.666627 q 0.38757,0 0.71313,-0.10335 0.33073,-0.10335 0.56844,-0.28939 0.24288,-0.1912 0.37723,-0.45992 0.13436,-0.26871 0.13436,-0.60461 0,-0.31006 -0.10852,-0.56844 -0.10335,-0.25838 -0.29972,-0.43925 -0.1912,-0.18603 -0.45992,-0.28938 -0.26355,-0.10336 -0.57877,-0.10336 h -1.012857 z"
                   style="font-family:'Gurmukhi MN';-inkscape-font-specification:'Gurmukhi MN';fill:#121212;fill-opacity:1"
                   id="path18126" />
                <path
                   d="m 111.41464,164.50137 q 0.25321,0 0.50126,-0.0672 0.24805,-0.0724 0.44442,-0.20671 0.19637,-0.13952 0.31522,-0.33589 0.11886,-0.20154 0.11886,-0.46509 0,-0.31522 -0.16537,-0.5581 -0.16019,-0.24805 -0.42374,-0.44958 -0.26355,-0.20671 -0.60461,-0.38758 -0.3359,-0.18086 -0.6873,-0.36173 -0.3514,-0.18087 -0.69246,-0.37724 -0.3359,-0.20153 -0.59945,-0.44441 -0.26354,-0.24805 -0.42891,-0.54777 -0.16019,-0.30489 -0.16019,-0.69763 0,-0.39274 0.14469,-0.72864 0.14986,-0.33589 0.43408,-0.57877 0.28422,-0.24805 0.69763,-0.38757 0.41858,-0.13953 0.95601,-0.13953 0.48576,0 0.86816,0.10335 0.38241,0.10336 0.67179,0.30489 0.28939,0.20154 0.49093,0.4961 0.20153,0.29455 0.32556,0.68212 l -0.58911,0.26872 q -0.10335,-0.31523 -0.26355,-0.57361 -0.1602,-0.26355 -0.38241,-0.44958 -0.2222,-0.18604 -0.51676,-0.28422 -0.28938,-0.10335 -0.65629,-0.10335 -0.32556,0 -0.56844,0.093 -0.24287,0.0878 -0.40824,0.23772 -0.16019,0.14469 -0.24288,0.33072 -0.0775,0.18087 -0.0775,0.37207 0,0.26872 0.16536,0.49609 0.16537,0.22221 0.43925,0.42375 0.27389,0.19637 0.62012,0.3824 0.3514,0.18604 0.71313,0.37724 0.36173,0.1912 0.70796,0.39791 0.3514,0.2067 0.62529,0.45475 0.27388,0.24288 0.43925,0.53743 0.16536,0.28939 0.16536,0.65112 0,0.40825 -0.15503,0.76998 -0.15503,0.35657 -0.46509,0.62528 -0.31005,0.26355 -0.76997,0.41858 -0.45992,0.15503 -1.0697,0.15503 -0.49609,0 -0.88367,-0.10852 -0.38757,-0.10852 -0.68729,-0.31523 -0.29455,-0.2067 -0.50643,-0.50126 -0.21187,-0.29972 -0.34623,-0.68212 l 0.61495,-0.25322 q 0.10852,0.3359 0.28939,0.59945 0.18603,0.26355 0.42891,0.44958 0.24288,0.18087 0.53743,0.27905 0.29973,0.0982 0.63562,0.0982 z"
                   style="font-family:'Gurmukhi MN';-inkscape-font-specification:'Gurmukhi MN';fill:#121212;fill-opacity:1"
                   id="path18128" />
              </g>
            </g>
          </g>
        </g>
      </g>
    </g>
  </g>
</svg>
